<svg id="behance" xmlns="http://www.w3.org/2000/svg" width="50" height="50" viewBox="0 0 50 50">
  <path id="Trazado_20" data-name="Trazado 20" d="M120.206,236.906a3.953,3.953,0,0,0-2.445-.7h-5.1v5.863h5a6.017,6.017,0,0,0,1.315-.133,3.11,3.11,0,0,0,1.1-.452,2.258,2.258,0,0,0,.762-.85,2.946,2.946,0,0,0,.28-1.38A2.779,2.779,0,0,0,120.206,236.906Z" transform="translate(-100.284 -210.25)" fill="#fff" fill-rule="evenodd"/>
  <path id="Trazado_21" data-name="Trazado 21" d="M119.47,166.188a2.238,2.238,0,0,0,.8-1.936,2.529,2.529,0,0,0-.261-1.223,1.938,1.938,0,0,0-.722-.741,2.919,2.919,0,0,0-1.032-.374,6.3,6.3,0,0,0-1.206-.105h-4.386v4.975h4.744A3.393,3.393,0,0,0,119.47,166.188Z" transform="translate(-100.282 -144.029)" fill="#fff" fill-rule="evenodd"/>
  <path id="Trazado_22" data-name="Trazado 22" d="M0,0V50H50V0ZM30.29,15.583H38.92v2.1H30.29ZM24.9,32.056a5.429,5.429,0,0,1-1.684,1.928,7.409,7.409,0,0,1-2.422,1.1,10.807,10.807,0,0,1-2.782.358H7.692V14.154H17.731a13.092,13.092,0,0,1,2.778.27,6.057,6.057,0,0,1,2.151.878,4.118,4.118,0,0,1,1.39,1.624,5.722,5.722,0,0,1,.487,2.5,4.669,4.669,0,0,1-.73,2.683,5.3,5.3,0,0,1-2.173,1.756,5.081,5.081,0,0,1,2.924,1.983,5.914,5.914,0,0,1,.963,3.418A5.9,5.9,0,0,1,24.9,32.056Zm17.379-3.3H31.156A4.316,4.316,0,0,0,32.2,31.749a4.315,4.315,0,0,0,4.95.285,2.723,2.723,0,0,0,1.131-1.367h3.729a7.075,7.075,0,0,1-2.749,3.978,8,8,0,0,1-4.464,1.2,8.879,8.879,0,0,1-3.289-.584A6.993,6.993,0,0,1,29.023,33.6a7.583,7.583,0,0,1-1.566-2.569,9.419,9.419,0,0,1-.554-3.286,9.048,9.048,0,0,1,.569-3.225,7.476,7.476,0,0,1,4.113-4.3,8.015,8.015,0,0,1,3.215-.627,7.3,7.3,0,0,1,3.426.762,6.827,6.827,0,0,1,2.4,2.043,8.366,8.366,0,0,1,1.355,2.926A10.922,10.922,0,0,1,42.281,28.757Z" fill="#fff" fill-rule="evenodd"/>
  <path id="Trazado_23" data-name="Trazado 23" d="M287.037,207.4a3.639,3.639,0,0,0-1.685.346,3.4,3.4,0,0,0-1.072.85,3.035,3.035,0,0,0-.568,1.086,4.834,4.834,0,0,0-.193,1.016h6.89a4.124,4.124,0,0,0-.976-2.439A3.167,3.167,0,0,0,287.037,207.4Z" transform="translate(-252.363 -184.607)" fill="#fff" fill-rule="evenodd"/>
</svg>
