<svg id="Layer_2" data-name="Layer 2" xmlns="http://www.w3.org/2000/svg" width="50" height="50" viewBox="0 0 50 50">
  <g id="invisible_box" data-name="invisible box">
    <rect id="Rect치ngulo_11" data-name="Rect치ngulo 11" width="50" height="50" fill="none"/>
    <rect id="Rect치ngulo_12" data-name="Rect치ngulo 12" width="50" height="50" fill="none"/>
  </g>
  <g id="icons_Q2" data-name="icons Q2" transform="translate(2.087 1.898)">
    <path id="Trazado_3" data-name="Trazado 3" d="M25.01,1.9A22.626,22.626,0,0,0,17.9,46.1c1.046.209,1.883-.943,1.883-1.885V41.176c-6.276,1.362-8.264-3.037-8.264-3.037a6.808,6.808,0,0,0-2.3-3.352c-2.092-1.466.1-1.362.1-1.362a4.5,4.5,0,0,1,3.452,2.095c1.778,3.037,5.753,2.723,7.009,2.2a5.662,5.662,0,0,1,.523-3.037c-7.113-1.257-10.984-5.446-10.984-11.1a11.215,11.215,0,0,1,3.034-7.96,6.5,6.5,0,0,1,.314-6.7,9.305,9.305,0,0,1,6.695,3.037,15.778,15.778,0,0,1,5.649-.838,17.867,17.867,0,0,1,5.649.733,9.409,9.409,0,0,1,6.695-2.933,6.815,6.815,0,0,1,.418,6.7,11.215,11.215,0,0,1,2.929,7.96c0,5.656-3.87,9.845-10.984,11.1a5.662,5.662,0,0,1,.523,3.037v6.494A1.884,1.884,0,0,0,32.228,46.1,22.732,22.732,0,0,0,25.01,1.9Z" transform="translate(-2.087 -1.898)" fill="#fff"/>
  </g>
</svg>
